<svg id="Layer_1" data-name="Layer 1" xmlns="http://www.w3.org/2000/svg" viewBox="0 0 500 500">
  <defs>
    <style>
      .cls-1 {
        font-size: 18.9px;
        font-family: ProximaNova-Semibold, Proxima Nova;
        font-weight: 600;
      }
    </style>
  </defs>
  <title>Artboard 21</title>
  <text class="cls-1" transform="translate(265.71 122.39) rotate(9.51)">P</text>
  <text class="cls-1" transform="translate(276.76 124.22) rotate(14.62)">R</text>
  <text class="cls-1" transform="translate(287.98 127.16) rotate(19.61)">E</text>
  <text class="cls-1" transform="matrix(0.92, 0.39, -0.39, 0.92, 298.05, 130.84)"> </text>
  <text class="cls-1" transform="matrix(0.89, 0.46, -0.46, 0.89, 302.38, 132.5)">U</text>
  <text class="cls-1" transform="translate(314.2 138.6) rotate(32.51)">S</text>
  <text class="cls-1" transform="translate(323.45 144.49) rotate(37.32)">E</text>
  <text class="cls-1" transform="translate(331.92 151.05) rotate(40.73)"> </text>
  <text class="cls-1" transform="translate(335.51 154.15) rotate(42.83)"> </text>
  <text class="cls-1" transform="matrix(0.71, 0.71, -0.71, 0.71, 338.99, 157.37)"> </text>
  <text class="cls-1" transform="matrix(0.68, 0.73, -0.73, 0.68, 342.35, 160.72)"> </text>
  <text class="cls-1" transform="translate(345.59 164.19) rotate(49.14)"> </text>
  <text class="cls-1" transform="matrix(0.63, 0.78, -0.78, 0.63, 348.68, 167.76)"> </text>
  <text class="cls-1" transform="translate(351.65 171.46) rotate(53.35)"> </text>
  <text class="cls-1" transform="translate(354.48 175.26) rotate(55.45)"> </text>
  <text class="cls-1" transform="translate(357.18 179.18) rotate(57.57)"> </text>
  <text class="cls-1" transform="matrix(0.5, 0.86, -0.86, 0.5, 359.71, 183.16)"> </text>
  <text class="cls-1" transform="matrix(0.44, 0.9, -0.9, 0.44, 362.2, 187.09)">U</text>
  <text class="cls-1" transform="matrix(0.35, 0.94, -0.94, 0.35, 368.09, 198.98)">N</text>
  <text class="cls-1" transform="translate(372.72 211.43) rotate(75.58)">D</text>
  <text class="cls-1" transform="translate(375.95 224.16) rotate(80.91)">E</text>
  <text class="cls-1" transform="matrix(0.07, 1, -1, 0.07, 377.66, 234.66)">R</text>
  <text class="cls-1" transform="translate(378.38 246.3) rotate(89.07)"> </text>
  <text class="cls-1" transform="translate(378.6 250.95) rotate(93.4)">U</text>
  <text class="cls-1" transform="translate(377.78 264.21) rotate(98.78)">S</text>
  <text class="cls-1" transform="matrix(-0.24, 0.97, -0.97, -0.24, 376.1, 275.06)">E</text>
  <text class="cls-1" transform="translate(373.5 285.45) rotate(107.08)"> </text>
  <text class="cls-1" transform="translate(372.11 289.97) rotate(109.2)"> </text>
  <text class="cls-1" transform="matrix(-0.36, 0.93, -0.93, -0.36, 370.56, 294.44)"> </text>
  <text class="cls-1" transform="matrix(-0.4, 0.92, -0.92, -0.4, 368.83, 298.86)"> </text>
  <text class="cls-1" transform="translate(366.95 303.2) rotate(115.59)"> </text>
  <text class="cls-1" transform="matrix(-0.46, 0.89, -0.89, -0.46, 364.9, 307.48)"> </text>
  <text class="cls-1" transform="translate(362.69 311.69) rotate(119.83)"> </text>
  <text class="cls-1" transform="translate(360.35 315.79) rotate(121.94)"> </text>
  <text class="cls-1" transform="translate(357.84 319.81) rotate(124.05)"> </text>
  <text class="cls-1" transform="translate(355.18 323.76) rotate(126.17)"> </text>
  <text class="cls-1" transform="matrix(-0.64, 0.77, -0.77, -0.64, 352.53, 327.57)">P</text>
  <text class="cls-1" transform="translate(345.44 336.24) rotate(135.32)">O</text>
  <text class="cls-1" transform="translate(335.34 346.14) rotate(140.87)">S</text>
  <text class="cls-1" transform="translate(326.98 352.95) rotate(145.59)">T</text>
  <text class="cls-1" transform="matrix(-0.86, 0.51, -0.51, -0.86, 318.1, 358.94)"> </text>
  <text class="cls-1" transform="matrix(-0.89, 0.45, -0.45, -0.89, 314.18, 361.48)">U</text>
  <text class="cls-1" transform="matrix(-0.93, 0.37, -0.37, -0.93, 302.31, 367.46)">S</text>
  <text class="cls-1" transform="translate(292.14 371.48) rotate(163.32)">E</text>
  <text class="cls-1" transform="translate(281.85 374.47) rotate(166.78)"> </text>
  <text class="cls-1" transform="matrix(-0.98, 0.19, -0.19, -0.98, 277.24, 375.56)"> </text>
  <text class="cls-1" transform="translate(272.58 376.47) rotate(171.03)"> </text>
  <text class="cls-1" transform="matrix(-0.99, 0.12, -0.12, -0.99, 267.89, 377.22)"> </text>
  <text class="cls-1" transform="translate(263.19 377.78) rotate(175.25)"> </text>
  <text class="cls-1" transform="matrix(-1, 0.05, -0.05, -1, 258.47, 378.18)"> </text>
  <text class="cls-1" transform="translate(253.73 378.38) rotate(179.07)"> </text>
  <text class="cls-1" transform="matrix(-1, -0.03, 0.03, -1, 248.98, 378.45)"> </text>
  <text class="cls-1" transform="matrix(-1, -0.06, 0.06, -1, 244.25, 378.33)"> </text>
  <text class="cls-1" transform="translate(239.51 378.03) rotate(-174.3)"> </text>
  <text class="cls-1" transform="translate(234.87 377.68) rotate(-170.75)">P</text>
  <text class="cls-1" transform="translate(223.8 375.9) rotate(-165.64)">R</text>
  <text class="cls-1" transform="translate(212.56 373.01) rotate(-160.64)">E</text>
  <text class="cls-1" transform="translate(202.47 369.37) rotate(-157.18)"> </text>
  <text class="cls-1" transform="translate(198.14 367.72) rotate(-153.15)">U</text>
  <text class="cls-1" transform="matrix(-0.85, -0.53, 0.53, -0.85, 186.3, 361.69)">S</text>
  <text class="cls-1" transform="translate(177.03 355.84) rotate(-142.94)">E</text>
  <text class="cls-1" transform="matrix(-0.76, -0.65, 0.65, -0.76, 168.53, 349.32)"> </text>
  <text class="cls-1" transform="matrix(-0.74, -0.68, 0.68, -0.74, 164.92, 346.24)"> </text>
  <text class="cls-1" transform="translate(161.43 343.03) rotate(-135.32)"> </text>
  <text class="cls-1" transform="matrix(-0.68, -0.73, 0.73, -0.68, 158.05, 339.7)"> </text>
  <text class="cls-1" transform="translate(154.8 336.24) rotate(-131.11)"> </text>
  <text class="cls-1" transform="matrix(-0.63, -0.78, 0.78, -0.63, 151.69, 332.68)"> </text>
  <text class="cls-1" transform="translate(148.7 329) rotate(-126.91)"> </text>
  <text class="cls-1" transform="matrix(-0.57, -0.82, 0.82, -0.57, 145.86, 325.21)"> </text>
  <text class="cls-1" transform="matrix(-0.54, -0.84, 0.84, -0.54, 143.14, 321.31)"> </text>
  <text class="cls-1" transform="matrix(-0.51, -0.86, 0.86, -0.51, 140.59, 317.34)"> </text>
  <text class="cls-1" transform="translate(138.09 313.42) rotate(-116.56)">U</text>
  <text class="cls-1" transform="translate(132.14 301.56) rotate(-110.61)">N</text>
  <text class="cls-1" transform="matrix(-0.25, -0.97, 0.97, -0.25, 127.45, 289.12)">D</text>
  <text class="cls-1" transform="matrix(-0.16, -0.99, 0.99, -0.16, 124.17, 276.41)">E</text>
  <text class="cls-1" transform="matrix(-0.08, -1, 1, -0.08, 122.41, 265.93)">R</text>
  <text class="cls-1" transform="translate(121.62 254.27) rotate(-90.93)"> </text>
  <text class="cls-1" transform="matrix(0.05, -1, 1, 0.05, 121.39, 249.64)">U</text>
  <text class="cls-1" transform="translate(122.16 236.37) rotate(-81.48)">S</text>
  <text class="cls-1" transform="translate(123.78 225.52) rotate(-76.64)">E</text>
  <text class="cls-1" transform="translate(126.34 215.13) rotate(-73.19)"> </text>
  <text class="cls-1" transform="translate(127.71 210.57) rotate(-71.05)"> </text>
  <text class="cls-1" transform="matrix(0.36, -0.93, 0.93, 0.36, 129.25, 206.09)"> </text>
  <text class="cls-1" transform="translate(130.95 201.68) rotate(-66.8)"> </text>
  <text class="cls-1" transform="translate(132.82 197.31) rotate(-64.67)"> </text>
  <text class="cls-1" transform="translate(134.83 193.04) rotate(-62.55)"> </text>
  <text class="cls-1" transform="translate(137.03 188.82) rotate(-60.43)"> </text>
  <text class="cls-1" transform="translate(139.36 184.71) rotate(-58.32)"> </text>
  <text class="cls-1" transform="translate(141.84 180.67) rotate(-56.21)"> </text>
  <text class="cls-1" transform="translate(144.49 176.72) rotate(-54.09)"> </text>
  <text class="cls-1" transform="translate(147.12 172.89) rotate(-50.55)">P</text>
  <text class="cls-1" transform="matrix(0.71, -0.71, 0.71, 0.71, 154.17, 164.19)">O</text>
  <text class="cls-1" transform="translate(164.23 154.24) rotate(-39.38)">S</text>
  <text class="cls-1" transform="translate(172.55 147.4) rotate(-34.67)">T</text>
  <text class="cls-1" transform="matrix(0.86, -0.52, 0.52, 0.86, 181.43, 141.36)"> </text>
  <text class="cls-1" transform="translate(185.32 138.82) rotate(-27.21)">U</text>
  <text class="cls-1" transform="translate(197.15 132.78) rotate(-21.78)">S</text>
  <text class="cls-1" transform="translate(207.32 128.71) rotate(-16.93)">E</text>
  <text class="cls-1" transform="translate(217.59 125.67) rotate(-13.48)"> </text>
  <text class="cls-1" transform="translate(222.2 124.56) rotate(-11.35)"> </text>
  <text class="cls-1" transform="translate(226.85 123.63) rotate(-9.23)"> </text>
  <text class="cls-1" transform="matrix(0.99, -0.12, 0.12, 0.99, 231.53, 122.87)"> </text>
  <text class="cls-1" transform="matrix(1, -0.09, 0.09, 1, 236.22, 122.28)"> </text>
  <text class="cls-1" transform="translate(240.97 121.86) rotate(-2.9)"> </text>
  <text class="cls-1" transform="translate(245.7 121.62) rotate(-0.93)"> </text>
  <text class="cls-1" transform="translate(250.42 121.55) rotate(1.25)"> </text>
  <text class="cls-1" transform="translate(255.18 121.65) rotate(3.34)"> </text>
  <text class="cls-1" transform="translate(259.9 121.92) rotate(5.44)"> </text>
</svg>
