<svg id="Layer_1" data-name="Layer 1" xmlns="http://www.w3.org/2000/svg" viewBox="0 0 194.41 81.75">
  <title>Artboard 5</title>
  <g>
    <path d="M97.3,81.75a40.88,40.88,0,1,1,40.88-40.87A40.92,40.92,0,0,1,97.3,81.75ZM97.3,10a30.88,30.88,0,1,0,30.88,30.88A30.92,30.92,0,0,0,97.3,10Z"/>
    <path d="M0,40.88c1.69-1.42,3.45-2.73,5.2-4.06S8.77,34.25,10.58,33c3.61-2.52,7.32-4.89,11.08-7.18A226.54,226.54,0,0,1,45.08,13.4c4-1.83,8.14-3.58,12.33-5.11s8.43-3,12.77-4.17A104.58,104.58,0,0,1,97.21,0,98.12,98.12,0,0,1,111,1.15a122.4,122.4,0,0,1,13.27,2.92q6.51,1.8,12.78,4.16c4.19,1.54,8.28,3.28,12.32,5.11a225.67,225.67,0,0,1,23.42,12.43c3.76,2.3,7.47,4.67,11.07,7.2,1.81,1.26,3.6,2.53,5.37,3.84s3.51,2.65,5.2,4.07c-15.9-7.46-31.81-14.45-48-20.25a230,230,0,0,0-24.51-7.37,123.84,123.84,0,0,0-12.36-2.34A90.05,90.05,0,0,0,97.22,10a90.1,90.1,0,0,0-12.31.94c-4.14.52-8.26,1.41-12.38,2.35A228.23,228.23,0,0,0,48,20.66C31.82,26.45,15.9,33.44,0,40.88Z"/>
    <path d="M0,40.88C15.9,48.32,31.82,55.3,48,61.1a232.88,232.88,0,0,0,24.5,7.37c4.12.94,8.24,1.83,12.38,2.35a90.08,90.08,0,0,0,12.31.93,88.49,88.49,0,0,0,12.31-.92c4.13-.51,8.25-1.4,12.36-2.33a230,230,0,0,0,24.51-7.37c16.2-5.8,32.11-12.8,48-20.25-1.69,1.42-3.45,2.73-5.2,4.07s-3.56,2.57-5.37,3.84c-3.6,2.52-7.31,4.89-11.07,7.2a225.59,225.59,0,0,1-23.42,12.42c-4,1.84-8.13,3.58-12.32,5.11s-8.44,3-12.78,4.17A122.37,122.37,0,0,1,111,80.6a95.21,95.21,0,0,1-13.77,1.15,104.58,104.58,0,0,1-27-4.12c-4.34-1.19-8.59-2.6-12.77-4.17s-8.29-3.27-12.33-5.1A228.48,228.48,0,0,1,21.66,56c-3.76-2.3-7.47-4.67-11.08-7.18C8.77,47.51,7,46.24,5.2,44.94S1.69,42.29,0,40.88Z"/>
  </g>
</svg>
