<?xml version="1.0" encoding="utf-8"?>
<!-- Generator: Adobe Illustrator 24.0.3, SVG Export Plug-In . SVG Version: 6.00 Build 0)  -->
<svg version="1.1" id="Layer_1" xmlns="http://www.w3.org/2000/svg" xmlns:xlink="http://www.w3.org/1999/xlink" x="0px" y="0px"
	 viewBox="0 0 391.6 82.7" style="enable-background:new 0 0 391.6 82.7;" xml:space="preserve">
<style type="text/css">
	.st0{fill:#191919;}
</style>
<title>Artboard 21</title>
<g id="WASTE">
	<g>
		<path class="st0" d="M55,26.3l-14,55H22.9L0,1.2h19.1l14,57.8L48.4,1.2h13.3L76.8,59L90.7,1.2h19.2l-22.8,80H69L55,26.3z"/>
		<path class="st0" d="M163.7,67.4h-35.8l-5,13.8h-18.8l31-80h21.4l30.8,80h-18.6L163.7,67.4z M132.5,52.7H159L145.8,16L132.5,52.7z
			"/>
		<path class="st0" d="M197.8,57c6.6,6.9,15.8,10.8,25.4,10.8c9.4,0,13.9-4.4,13.9-9c0-6-7-8-16.2-10.2c-13.1-3-29.9-6.6-29.9-24.5
			C191,10.8,202.6,0,221.4,0c12.7,0,23.3,3.8,31.2,11.2l-9.5,12.5c-6.3-5.7-14.5-8.8-22.9-8.8c-7.7,0-11.8,3.4-11.8,8.2
			c0,5.4,6.7,7.1,16,9.2c13.2,3,30,7,30,24.7c0,14.6-10.4,25.7-32,25.7c-15.4,0-26.4-5.2-34-12.7L197.8,57z"/>
		<path class="st0" d="M283.6,16.2h-23.4v-15H324v15h-23.3v65h-17.2V16.2z"/>
		<path class="st0" d="M334.9,1.2h56.6v14.6H352v17.4h38.8v14.6H352v18.6h39.6v14.8h-56.7V1.2z"/>
	</g>
</g>
</svg>
