<svg id="Layer_1" data-name="Layer 1" xmlns="http://www.w3.org/2000/svg" viewBox="0 0 391.56 82.68">
  <defs>
    <style>
      .cls-1 {
        isolation: isolate;
      }

      .cls-2 {
        fill: #db9466;
      }
    </style>
  </defs>
  <title>Artboard 21</title>
  <g id="WASTE" class="cls-1">
    <g class="cls-1">
      <path class="cls-2" d="M55,26.28,41,81.24H22.92L0,1.2H19.08L33.12,59,48.36,1.2H61.68L76.8,59,90.72,1.2h19.2l-22.8,80H69Z"/>
      <path class="cls-2" d="M163.68,67.44H127.92l-5,13.8H104.16l31-80h21.36l30.84,80h-18.6Zm-31.2-14.76H159L145.8,16Z"/>
      <path class="cls-2" d="M197.76,57A35.09,35.09,0,0,0,223.2,67.8c9.36,0,13.92-4.44,13.92-9,0-6-7-8-16.2-10.2C207.84,45.6,191,42,191,24.12,191,10.8,202.56,0,221.4,0c12.72,0,23.28,3.84,31.2,11.16l-9.48,12.48a34.15,34.15,0,0,0-22.92-8.76c-7.68,0-11.76,3.36-11.76,8.16,0,5.4,6.72,7.08,16,9.24,13.2,3,30,7,30,24.72,0,14.64-10.44,25.68-32,25.68-15.36,0-26.4-5.16-34-12.72Z"/>
      <path class="cls-2" d="M283.56,16.2h-23.4V1.2H324v15H300.72v65H283.56Z"/>
      <path class="cls-2" d="M334.92,1.2h56.64V15.84H352v17.4h38.76V47.88H352v18.6h39.6V81.24H334.92Z"/>
    </g>
  </g>
</svg>
