<svg id="Layer_1" data-name="Layer 1" xmlns="http://www.w3.org/2000/svg" viewBox="0 0 187.95 27.59">
  <defs>
    <style>
      .cls-1 {
        isolation: isolate;
      }

      .cls-2 {
        fill: #191919;
      }
    </style>
  </defs>
  <title>Artboard 41</title>
  <g id="CLOTHING" class="cls-1">
    <g class="cls-1">
      <path class="cls-2" d="M14.76,0c4.72,0,8.48,2,10.52,5.72l-2.2,1a9.09,9.09,0,0,0-8.44-4.64C8.56,2.08,2.48,7.44,2.48,16c0,5.72,3.72,9.56,9.64,9.56a11.22,11.22,0,0,0,7.52-3l1.64,1.36A13.38,13.38,0,0,1,12,27.59C5,27.59,0,23,0,16,0,6.32,7.28,0,14.76,0Z"/>
      <path class="cls-2" d="M31.24.44h2.28L28.08,25H41l-.44,2.08H25.36Z"/>
      <path class="cls-2" d="M60.84,0c6.64,0,12,4.12,12,11.56,0,9-6.63,16-14.79,16-6.6,0-12-4.11-12-11.55C46.08,7,52.72,0,60.84,0Zm-.16,2.08C54.2,2.08,48.56,7.88,48.56,16c0,6.24,4.36,9.56,9.64,9.56,6.44,0,12.16-5.8,12.16-13.88C70.36,5.4,66,2.08,60.68,2.08Z"/>
      <path class="cls-2" d="M85.92,2.52H77.2L77.64.44H97.4L97,2.52H88.2l-5.4,24.6H80.48Z"/>
      <path class="cls-2" d="M118.24,14.44H101.32l-2.8,12.68H96.24L102.12.44h2.28l-2.6,11.92h16.88L121.32.44h2.27l-5.83,26.68h-2.32Z"/>
      <path class="cls-2" d="M130.24.44h2.28l-5.88,26.68h-2.28Z"/>
      <path class="cls-2" d="M140.76,3.64l-5.2,23.48h-2.28L139.16.44h2.32L153,23.6,158.2.44h2.28L154.6,27.12h-2.24Z"/>
      <path class="cls-2" d="M177.64,0C182.44,0,186,2.16,188,5.48l-2,1c-1.65-3-4.92-4.44-8.52-4.44-6.28,0-12.16,5.76-12.16,13.88,0,5.84,3.8,9.56,9.64,9.56a11.23,11.23,0,0,0,7.76-3.2L184,16H174l.44-2.08h12.39l-2.12,9.52a14,14,0,0,1-9.95,4.19c-7.28,0-12-4.83-12-11.55C162.76,6.72,169.64,0,177.64,0Z"/>
    </g>
  </g>
</svg>
