<svg id="Layer_1" data-name="Layer 1" xmlns="http://www.w3.org/2000/svg" width="332.9" height="66.71" viewBox="0 0 332.9 66.71"><defs><style>.cls-1{fill:#db9466;}.cls-2{fill:#fff;}</style></defs><path class="cls-1" d="M13.09,43.27l7.64-21.79-13.1,4L6,20.31,26.87,13.9l1.46,4.74L20.7,40.47l13.4-4.12,1.6,5.2-21.13,6.5Z"/><path class="cls-1" d="M34.74,12.11,55,8.86l.84,5.24L41.68,16.38l1,6.23,13.88-2.23.84,5.24L43.52,27.85l1.07,6.66,14.18-2.27.85,5.28L39.34,40.77Z"/><path class="cls-1" d="M74,26.69l-4.52,0,.06,10.4-6.18.05-.18-29,13.58-.08c6,0,9.77,3.9,9.81,9.29,0,5.14-3.17,7.9-6.3,8.66l6.6,11-7.1.05Zm1.88-13.33-6.49,0,0,8,6.49,0c2.48,0,4.34-1.59,4.32-4S78.37,13.35,75.89,13.36Z"/><path class="cls-1" d="M109.62,11.23c8.58,1.89,13.48,9.39,11.6,17.93s-9.48,13.29-18.07,11.39S89.71,31.17,91.59,22.63,101.07,9.34,109.62,11.23Zm-1.18,5.35C103.21,15.43,99,18.68,97.8,24s1.3,10,6.53,11.2,9.52-2.14,10.68-7.41S113.66,17.73,108.44,16.58Z"/><path class="cls-1" d="M154.55,27.25l-4.5,20.06-6.57.18-9.1-28.79,6.92-.19L147,39.34l4.95-21.12,4.83-.13,6,20.82,4.48-21.11,7-.18-7.48,29.24-6.57.17Z"/><path class="cls-1" d="M196.25,35.66l-12.7,2.66-.76,5.27L176.14,45l5.05-30.71,7.58-1.59L205.66,38.8l-6.6,1.38Zm-12.17-2.92,9.41-2-7.41-12Z"/><path class="cls-1" d="M208,30.05a12.73,12.73,0,0,0,9.32,3.71c3.39-.07,5-1.72,5-3.37,0-2.18-2.59-2.86-5.95-3.57-4.77-1-10.89-2.15-11-8.64-.11-4.83,4-8.84,10.82-9a16.16,16.16,0,0,1,11.4,3.8l-3.34,4.6a12.29,12.29,0,0,0-8.38-3c-2.78.06-4.24,1.31-4.2,3,.05,2,2.5,2.51,5.87,3.22,4.81,1,10.93,2.28,11.07,8.72.12,5.31-3.58,9.4-11.41,9.58-5.57.12-9.61-1.66-12.42-4.34Z"/><path class="cls-1" d="M241.25,16.23l-8.41-1.1.7-5.39,23,3-.71,5.39L247.42,17l-3,23.39-6.17-.8Z"/><path class="cls-1" d="M263.39,14.26l19.8,5.48-1.42,5.11L267.93,21l-1.68,6.09,13.55,3.75L278.38,36l-13.55-3.75L263,38.73l13.85,3.83-1.43,5.16-19.8-5.48Z"/><path class="cls-1" d="M44.35,50.69A69.55,69.55,0,0,1,61.13,47"/><path class="cls-1" d="M44.55,51.41a69.82,69.82,0,0,1,16.58-3.64c1-.09,1-1.59,0-1.5a70.88,70.88,0,0,0-17,3.7c-.91.31-.52,1.76.39,1.44Z"/><path class="cls-1" d="M73.49,46.44a39.48,39.48,0,0,1,17.41.25"/><path class="cls-1" d="M73.69,47.17a39.2,39.2,0,0,1,17,.24c.94.23,1.34-1.22.4-1.44a41,41,0,0,0-17.81-.25c-.94.2-.54,1.64.4,1.45Z"/><path class="cls-1" d="M103.53,48.27c2.91.39,6,.92,9.34,1.66,2.84.63,5.51,1.34,8,2.08"/><path class="cls-1" d="M103.33,49a112.76,112.76,0,0,1,17.32,3.74.75.75,0,0,0,.39-1.44,113.59,113.59,0,0,0-17.31-3.75c-1-.13-1.35,1.32-.4,1.45Z"/><path class="cls-1" d="M133.81,55.15c2.76.46,5.76.85,9,1.1a101.11,101.11,0,0,0,10.38.27"/><path class="cls-1" d="M133.61,55.87a105.12,105.12,0,0,0,19.57,1.4.75.75,0,0,0,0-1.5A102.52,102.52,0,0,1,134,54.43c-.94-.16-1.35,1.29-.4,1.44Z"/><path class="cls-1" d="M166.66,55.36a91.24,91.24,0,0,0,9.16-.76,90.28,90.28,0,0,0,10-1.89"/><path class="cls-1" d="M166.66,56.11A95.32,95.32,0,0,0,186,53.43c.94-.23.54-1.67-.4-1.44a93.49,93.49,0,0,1-19,2.62c-1,0-1,1.53,0,1.5Z"/><path class="cls-1" d="M199.79,49.19a59.32,59.32,0,0,1,10-2,58.65,58.65,0,0,1,12.11-.09"/><path class="cls-1" d="M200,49.92a59.25,59.25,0,0,1,21.92-2.07c1,.09,1-1.41,0-1.5a60.25,60.25,0,0,0-22.31,2.12.75.75,0,0,0,.39,1.45Z"/><path class="cls-1" d="M233.9,47.23c3,.14,6.34.44,9.89,1a101.47,101.47,0,0,1,10,2"/><path class="cls-1" d="M233.9,48a100.8,100.8,0,0,1,19.69,2.94.75.75,0,0,0,.39-1.45,103.8,103.8,0,0,0-20.08-3c-1,0-1,1.45,0,1.5Z"/><path class="cls-1" d="M265.53,52.93a45.08,45.08,0,0,1,14.77,4.3"/><path class="cls-1" d="M265.53,53.68a45,45,0,0,1,14.39,4.19c.86.43,1.63-.87.76-1.29a47,47,0,0,0-15.15-4.4c-1-.11-.95,1.39,0,1.5Z"/><path class="cls-1" d="M32.41,53.74a44.3,44.3,0,0,0-16.24,4.87"/><path class="cls-1" d="M32.41,53a46,46,0,0,0-16.62,5c-.85.45-.1,1.74.76,1.3a43.92,43.92,0,0,1,15.86-4.77c1-.09,1-1.59,0-1.5Z"/><path class="cls-2" d="M332.9,62.93H312.25V42.28H332.9ZM324,51.05l-.54-.17-3.3-1.06-2.36-.76a5.89,5.89,0,0,0-1.45-.34,4.18,4.18,0,0,0-1.64.23,4.65,4.65,0,0,0-1.54.9l9.07,2.86-6.92,6.52a4.36,4.36,0,0,0,2.63,0,3.44,3.44,0,0,0,1.2-.66l.8-.72,1-.9.9-.86.61-.57.89-.86c.33-.32.67-.63,1-1s.27-.23.54-.13a2.76,2.76,0,0,0,.27.08c.44.11.65.42.53.79a2.67,2.67,0,0,0,1,3,2.68,2.68,0,0,0,4.24-2.08,2.64,2.64,0,0,0-1.67-2.58c-.72-.27-1.47-.48-2.2-.72l-.66-.22c.12-.13.21-.25.32-.36.61-.59,1.24-1.16,1.83-1.77a2.46,2.46,0,0,0,.62-2.45,2.55,2.55,0,0,0-2.11-2,2.64,2.64,0,0,0-2.71,1.13,2.69,2.69,0,0,0,.3,3.4.53.53,0,0,1,0,.74C324.33,50.7,324.14,50.87,324,51.05Z"/><path d="M324,51.05c.19-.18.38-.35.57-.54a.53.53,0,0,0,0-.74,2.69,2.69,0,0,1-.3-3.4,2.64,2.64,0,0,1,2.71-1.13,2.55,2.55,0,0,1,2.11,2,2.46,2.46,0,0,1-.62,2.45c-.59.61-1.22,1.18-1.83,1.77-.11.11-.2.23-.32.36l.66.22c.73.24,1.48.45,2.2.72a2.64,2.64,0,0,1,1.67,2.58,2.68,2.68,0,0,1-4.24,2.08,2.67,2.67,0,0,1-1-3c.12-.37-.09-.68-.53-.79a2.76,2.76,0,0,1-.27-.08c-.27-.1-.33-.08-.54.13s-.65.64-1,1l-.89.86-.61.57-.9.86-1,.9-.8.72a3.44,3.44,0,0,1-1.2.66,4.36,4.36,0,0,1-2.63,0l6.92-6.52-9.07-2.86a4.65,4.65,0,0,1,1.54-.9,4.18,4.18,0,0,1,1.64-.23,5.89,5.89,0,0,1,1.45.34l2.36.76,3.3,1.06Zm.89-3.12a1.62,1.62,0,1,0,3.23-.14,1.62,1.62,0,0,0-3.23.14Zm3.25,5.68a1.61,1.61,0,1,0,1.65,1.46A1.57,1.57,0,0,0,328.09,53.61Z"/><path class="cls-2" d="M324.84,47.93a1.62,1.62,0,0,1,3.23-.14,1.62,1.62,0,1,1-3.23.14Z"/><path class="cls-2" d="M328.09,53.61a1.57,1.57,0,0,1,1.65,1.46,1.61,1.61,0,1,1-1.65-1.46Z"/><path class="cls-1" d="M290.11,58.44a90.77,90.77,0,0,0,9.16-.76,90.28,90.28,0,0,0,10-1.89"/><path class="cls-1" d="M290.11,59.19a95.22,95.22,0,0,0,19.38-2.68c.94-.23.54-1.67-.4-1.44a93.39,93.39,0,0,1-19,2.62c-1,0-1,1.53,0,1.5Z"/></svg>
