<svg id="Layer_1" data-name="Layer 1" xmlns="http://www.w3.org/2000/svg" width="298.6" height="76" viewBox="0 0 298.6 76"><defs><style>.cls-1{fill:#db9466;}.cls-2{fill:#fff;}</style></defs><path class="cls-1" d="M22.83,43.27l7.64-21.79-13.11,4-1.6-5.2L36.61,13.9l1.45,4.74L30.44,40.47l13.39-4.12,1.6,5.2L24.3,48.05Z"/><path class="cls-1" d="M44.47,12.11,64.76,8.86l.84,5.24L51.42,16.38l1,6.23L66.3,20.38l.84,5.24L53.26,27.85l1.07,6.66,14.18-2.27.84,5.28L49.07,40.77Z"/><path class="cls-1" d="M83.75,26.69l-4.53,0,.07,10.4-6.18,0-.19-29L86.5,8.05c6,0,9.78,3.89,9.81,9.29,0,5.14-3.17,7.9-6.3,8.66l6.6,11-7.09.05Zm1.87-13.33-6.48,0,0,8,6.48,0c2.48,0,4.35-1.59,4.33-4S88.1,13.35,85.62,13.36Z"/><path class="cls-1" d="M119.35,11.22c8.59,1.9,13.49,9.4,11.61,17.94s-9.49,13.29-18.07,11.39-13.44-9.38-11.56-17.92S110.81,9.34,119.35,11.22Zm-1.18,5.36c-5.23-1.15-9.46,2.1-10.63,7.42s1.3,10,6.53,11.2,9.52-2.14,10.68-7.41S123.4,17.73,118.17,16.58Z"/><path class="cls-1" d="M164.29,27.25l-4.51,20.06-6.57.18L144.12,18.7l6.91-.19,5.66,20.83,5-21.12,4.83-.13,6.05,20.82L177,17.8l7-.18-7.48,29.24-6.57.17Z"/><path class="cls-1" d="M206,35.66l-12.69,2.66-.76,5.27L185.88,45l5.05-30.71,7.58-1.59L215.4,38.8l-6.6,1.38Zm-12.17-2.92,9.42-2-7.42-12Z"/><path class="cls-1" d="M217.77,30.05a12.71,12.71,0,0,0,9.31,3.71c3.4-.07,5-1.72,5-3.37-.05-2.18-2.59-2.86-6-3.57-4.77-1-10.89-2.15-11-8.64-.11-4.83,4-8.84,10.81-9A16.17,16.17,0,0,1,237.29,13L234,17.59a12.31,12.31,0,0,0-8.38-3c-2.79.06-4.24,1.31-4.2,3,0,2,2.49,2.51,5.86,3.22,4.81,1,10.94,2.28,11.08,8.73.12,5.3-3.58,9.39-11.41,9.57-5.57.12-9.62-1.66-12.42-4.34Z"/><path class="cls-1" d="M251,16.23l-8.42-1.1.71-5.39,23,3-.7,5.39L257.16,17l-3.05,23.39-6.17-.8Z"/><path class="cls-1" d="M273.13,14.26l19.8,5.48-1.42,5.12L277.67,21,276,27.11l13.54,3.75L288.12,36l-13.55-3.75-1.8,6.51,13.84,3.83-1.42,5.16-19.8-5.48Z"/><path class="cls-1" d="M54.11,50.64a67.16,67.16,0,0,1,8.52-2.41A70.74,70.74,0,0,1,70.89,47"/><path class="cls-1" d="M54.51,52.08a69,69,0,0,1,16.38-3.61,1.55,1.55,0,0,0,1.5-1.5,1.51,1.51,0,0,0-1.5-1.5,72.1,72.1,0,0,0-17.18,3.72c-1.81.64-1,3.53.8,2.89Z"/><path class="cls-1" d="M83.24,46.39a39.91,39.91,0,0,1,8.42-.85,39,39,0,0,1,9,1.1"/><path class="cls-1" d="M83.64,47.84a38.3,38.3,0,0,1,16.61.24c1.88.45,2.68-2.44.8-2.89a41.9,41.9,0,0,0-18.21-.25c-1.89.4-1.09,3.29.8,2.9Z"/><path class="cls-1" d="M113.28,48.21c2.91.39,6,.93,9.34,1.66,2.85.64,5.51,1.35,8,2.09"/><path class="cls-1" d="M112.88,49.66a112.78,112.78,0,0,1,17.32,3.75c1.85.55,2.64-2.34.8-2.9a112.76,112.76,0,0,0-17.32-3.74,1.56,1.56,0,0,0-1.85,1,1.52,1.52,0,0,0,1,1.85Z"/><path class="cls-1" d="M143.56,55.1c2.76.46,5.76.85,9,1.1,3.74.28,7.22.35,10.38.27"/><path class="cls-1" d="M143.17,56.55A106.31,106.31,0,0,0,162.93,58c1.93,0,1.93-3,0-3a102.14,102.14,0,0,1-19-1.32,1.54,1.54,0,0,0-1.84,1.05,1.51,1.51,0,0,0,1,1.85Z"/><path class="cls-1" d="M176.41,55.31c2.81-.1,5.88-.32,9.16-.76a92.65,92.65,0,0,0,10-1.89"/><path class="cls-1" d="M176.41,56.81A97.18,97.18,0,0,0,196,54.11c1.88-.46,1.08-3.36-.8-2.9a92.23,92.23,0,0,1-18.78,2.6c-1.92.06-1.93,3.06,0,3Z"/><path class="cls-1" d="M209.54,49.14a59.53,59.53,0,0,1,10-2,58.74,58.74,0,0,1,12.12-.09"/><path class="cls-1" d="M209.94,50.59a58.57,58.57,0,0,1,21.72-2c1.92.17,1.91-2.83,0-3a60.94,60.94,0,0,0-22.52,2.15,1.5,1.5,0,0,0,.8,2.89Z"/><path class="cls-1" d="M243.65,47.18c3,.14,6.34.44,9.89,1a101.47,101.47,0,0,1,10,2"/><path class="cls-1" d="M243.65,48.68a99.52,99.52,0,0,1,19.49,2.91c1.87.47,2.67-2.42.8-2.89a104.66,104.66,0,0,0-20.29-3c-1.92-.1-1.92,2.9,0,3Z"/><path class="cls-1" d="M275.28,52.88a45.31,45.31,0,0,1,14.77,4.29"/><path class="cls-1" d="M275.28,54a44.06,44.06,0,0,1,14.19,4.14c1.33.65,2.5-1.34,1.16-2a47.63,47.63,0,0,0-15.35-4.46,1.16,1.16,0,0,0,0,2.31Z"/><path class="cls-1" d="M42.16,53.69a44.3,44.3,0,0,0-16.24,4.87"/><path class="cls-1" d="M42.16,52.19a47,47,0,0,0-17,5.07c-1.71.9-.19,3.49,1.52,2.59a42.94,42.94,0,0,1,15.48-4.66,1.54,1.54,0,0,0,1.5-1.5,1.51,1.51,0,0,0-1.5-1.5Z"/><path class="cls-2" d="M22.78,76H0V53.22H22.78ZM17.26,56.73a4.35,4.35,0,0,0-3.18,1,7.61,7.61,0,0,0-1.25,1.53c-.51.72-1,1.44-1.5,2.16L9.54,63.92c-.1.14-.17.34-.43.28s-.37,0-.54-.08a1.09,1.09,0,0,1-.4-.27c-.18-.2-.05-.45-.05-.67a2.67,2.67,0,0,0-1.34-2.32,2.51,2.51,0,0,0-1.57-.36,2.68,2.68,0,0,0-.38,5.28c.69.12,1.39.19,2.09.27l1,.12c-.4.55-.77,1.07-1.13,1.6a9.9,9.9,0,0,0-.72,1.1,2.51,2.51,0,0,0,.17,2.67,2.55,2.55,0,0,0,2.37,1.19A2.69,2.69,0,0,0,10,67.83c-.17-.13-.31-.31-.22-.52s.28-.47.41-.71a.26.26,0,0,1,.29-.14c.58.08,1.16.14,1.74.21,1,.12,2,.24,3,.34s1.71.23,2.57.24a4.16,4.16,0,0,0,3.38-1.74l-9.47-1Z"/><path d="M17.26,56.73l-5.53,7.74,9.47,1a4.16,4.16,0,0,1-3.38,1.74c-.86,0-1.72-.15-2.57-.24s-2-.22-3-.34c-.58-.07-1.16-.13-1.74-.21a.26.26,0,0,0-.29.14c-.13.24-.3.46-.41.71s0,.39.22.52a2.69,2.69,0,0,1-1.39,4.9,2.55,2.55,0,0,1-2.37-1.19,2.51,2.51,0,0,1-.17-2.67,9.9,9.9,0,0,1,.72-1.1c.36-.53.73-1,1.13-1.6l-1-.12c-.7-.08-1.4-.15-2.09-.27a2.68,2.68,0,0,1,.38-5.28,2.51,2.51,0,0,1,1.57.36,2.67,2.67,0,0,1,1.34,2.32c0,.22-.13.47.05.67a1.09,1.09,0,0,0,.4.27c.17.06.36,0,.54.08s.33-.14.43-.28l1.79-2.52c.5-.72,1-1.44,1.5-2.16a7.61,7.61,0,0,1,1.25-1.53A4.35,4.35,0,0,1,17.26,56.73ZM8.5,71.66A1.62,1.62,0,0,0,10.12,70a1.62,1.62,0,0,0-3.24.11A1.62,1.62,0,0,0,8.5,71.66ZM7,63.19a1.57,1.57,0,0,0-1.45-1.62,1.61,1.61,0,0,0-.31,3.21A1.58,1.58,0,0,0,7,63.19Z"/><path class="cls-2" d="M8.5,71.66a1.62,1.62,0,0,1-1.62-1.57A1.62,1.62,0,0,1,10.12,70,1.62,1.62,0,0,1,8.5,71.66Z"/><path class="cls-2" d="M7,63.19a1.58,1.58,0,0,1-1.76,1.59,1.61,1.61,0,0,1,.31-3.21A1.57,1.57,0,0,1,7,63.19Z"/></svg>
